<svg width="180" height="180" viewBox="0 0 180 180" xmlns="http://www.w3.org/2000/svg">
  <rect width="180" height="180" rx="12" fill="#ffffff"/>
  <rect x="10" y="10" width="40" height="40" fill="none" stroke="#1f2430" stroke-width="6"/>
  <rect x="22" y="22" width="16" height="16" fill="#1f2430"/>
  <rect x="130" y="10" width="40" height="40" fill="none" stroke="#1f2430" stroke-width="6"/>
  <rect x="142" y="22" width="16" height="16" fill="#1f2430"/>
  <rect x="10" y="130" width="40" height="40" fill="none" stroke="#1f2430" stroke-width="6"/>
  <rect x="22" y="142" width="16" height="16" fill="#1f2430"/>
  <g fill="#1f2430">
    <rect x="64" y="14" width="8" height="8"/>
    <rect x="80" y="14" width="8" height="8"/>
    <rect x="96" y="22" width="8" height="8"/>
    <rect x="64" y="30" width="8" height="8"/>
    <rect x="88" y="38" width="8" height="8"/>
    <rect x="104" y="46" width="8" height="8"/>
    <rect x="70" y="54" width="8" height="8"/>
    <rect x="120" y="62" width="8" height="8"/>
    <rect x="60" y="70" width="8" height="8"/>
    <rect x="140" y="78" width="8" height="8"/>
    <rect x="80" y="86" width="8" height="8"/>
    <rect x="100" y="94" width="8" height="8"/>
    <rect x="120" y="100" width="8" height="8"/>
    <rect x="64" y="108" width="8" height="8"/>
    <rect x="88" y="116" width="8" height="8"/>
    <rect x="110" y="122" width="8" height="8"/>
    <rect x="70" y="130" width="8" height="8"/>
    <rect x="96" y="138" width="8" height="8"/>
    <rect x="120" y="146" width="8" height="8"/>
    <rect x="140" y="154" width="8" height="8"/>
    <rect x="150" y="100" width="8" height="8"/>
    <rect x="150" y="130" width="8" height="8"/>
  </g>
  <text x="90" y="176" font-family="monospace" font-size="9" fill="#9aa0ac" text-anchor="middle">SAMPLE QR</text>
</svg>
